<?xml version="1.0" encoding="utf-8"?><svg xmlns="http://www.w3.org/2000/svg" xmlns:xlink="http://www.w3.org/1999/xlink" width="1536" height="767" preserveAspectRatio="xMidYMid" viewBox="0 0 1536 767" style="z-index:1;margin-right:-2px;display:block;background-repeat-y:initial;background-repeat-x:initial;animation-play-state:paused" ><g transform="" style="animation-play-state:paused" ><linearGradient id="lg-0.5165816023223042" x1="0" x2="1" y1="0" y2="0" style="animation-play-state:paused" ><stop stop-color="#df1317" offset="0" style="animation-play-state:paused" ></stop>

  
<stop stop-color="#e4934b" offset="1" style="animation-play-state:paused" ></stop></linearGradient>
<path d="M 0 0 L 0 726.191 Q 256 537.548 512 519.834 T 1024 474.85 T 1536 390.737 L 1536 0 Z" fill="url(#lg-0.5165816023223042)" opacity="0.4" style="opacity:0.4;animation-play-state:paused" ></path>
<path d="M 0 0 L 0 669.61 Q 256 580.727 512 548.13 T 1024 406.057 T 1536 336.679 L 1536 0 Z" fill="url(#lg-0.5165816023223042)" opacity="0.4" style="opacity:0.4;animation-play-state:paused" ></path>
<path d="M 0 0 L 0 696.058 Q 256 666.776 512 627.031 T 1024 451.151 T 1536 316.593 L 1536 0 Z" fill="url(#lg-0.5165816023223042)" opacity="0.4" style="opacity:0.4;animation-play-state:paused" ></path>
<path d="M 0 0 L 0 661.438 Q 256 597.469 512 560.949 T 1024 479.792 T 1536 303.18 L 1536 0 Z" fill="url(#lg-0.5165816023223042)" opacity="0.4" style="opacity:0.4;animation-play-state:paused" ></path>
<path d="M 0 0 L 0 752.783 Q 256 623.436 512 594.272 T 1024 472.981 T 1536 333.743 L 1536 0 Z" fill="url(#lg-0.5165816023223042)" opacity="0.4" style="opacity:0.4;animation-play-state:paused" ></path></g></svg>